<svg id="Layer_1" data-name="Layer 1" xmlns="http://www.w3.org/2000/svg" viewBox="0 0 804.66 224.36"><defs><style>.cls-1{fill:#231f20;}.cls-2{fill:#00a7e1;}.cls-3{fill:#f5333f;}.cls-4{fill:#b11cab;}.cls-5{fill:#fff;}</style></defs><rect class="cls-1" x="-14.27" y="-14.14" width="833.37" height="253.39"/><path class="cls-2" d="M160,66.39c-42.11,0-78.23,19-93.62,46,15.39,27,51.51,46,93.62,46s78.23-19,93.62-46C238.19,85.37,202.07,66.39,160,66.39Z"/><path class="cls-3" d="M263.87,138.44c10.54-7.23,19-16.09,24.67-26-15.38-27-51.51-46-93.62-46s-78.23,19-93.62,46c15.39,27,51.51,46,93.62,46,26.62,0,50.84-7.58,69-20"/><path class="cls-4" d="M246.92,122.07a69.62,69.62,0,0,0,6.66-9.67C240.37,89.2,211.87,72,177.44,67.54,143,72,114.51,89.2,101.3,112.4c13.21,23.21,41.71,40.44,76.14,44.87,29.46-3.79,54.57-17,69.48-35.2"/><circle class="cls-5" cx="175.85" cy="111.78" r="16.07"/><path class="cls-5" d="M324.56,125.69h-4.92V101.13H339.3c3.27,0,4.91,1.63,4.91,4.91V111c0,3.28-1.64,4.91-4.91,4.91H324.56ZM339.3,111V106H324.56V111Z"/><path class="cls-5" d="M380.56,125.69H365.82q-4.9,0-4.91-4.91V101.13h4.91v19.65h14.74V101.13h4.91v19.65C385.47,124.05,383.84,125.69,380.56,125.69Z"/><path class="cls-5" d="M412,115.86h-4.91v9.83h-4.91V101.13h19.65c3.27,0,4.91,1.63,4.91,4.91V111c0,3.28-1.61,4.91-4.83,4.91h-3.84l8.67,9.83h-6.06ZM407.09,106V111h14.74V106Z"/><path class="cls-5" d="M448.36,125.69h-4.92V101.13H463.1c3.27,0,4.91,1.63,4.91,4.91V111c0,3.28-1.64,4.91-4.91,4.91H448.36ZM463.1,111V106H448.36V111Z"/><path class="cls-5" d="M509.27,125.69H484.71V101.13h4.91v19.65h19.65Z"/><path class="cls-5" d="M530.89,115.86v4.92h19.65v4.91H526V101.13h24.56V106H530.89V111h19.65v4.91Z"/><path class="cls-5" d="M567.24,101.13h27.42L589.71,106H582v19.65h-4.91V106h-9.83Z"/><path class="cls-5" d="M613.42,115.86v4.92h19.65v4.91H608.51V101.13h24.56V106H613.42V111h19.65v4.91Z"/><path class="cls-5" d="M656.3,123.23l-.92,2.46h-5.6l9.82-24.56h4.91l9.83,24.56h-5.76l-.92-2.46Zm9.52-4.91-3.76-9.83-3.84,9.83Z"/><path class="cls-5" d="M691,125.69V106c0-3.28,1.64-4.91,4.92-4.91h14.73c3.28,0,4.92,1.63,4.92,4.91v19.65h-4.92V106h-4.91v19.65h-4.91V106H696v19.65Z"/><path class="cls-5" d="M730.53,106h-.34v-4.59h-1.6v-.32h3.54v.32h-1.6Z"/><path class="cls-5" d="M735,106l-1.83-4.53h0c0,.27,0,.56,0,.85V106h-.33v-4.91h.53l1.74,4.32h0l1.74-4.32h.51V106h-.34V102.3a7.57,7.57,0,0,1,0-.81h0L735.23,106Z"/></svg>